# xmcd
#
# Track frame offsets: 
#        150
#        14002
#        35872
#        50304
#        62249
#        79855
#        107322
#        125203
#        141438
#        160892
#        179187
#        194616
#        220229
#        238439
#        252805
#        288415
#        310524
#
# Disc length: 4442 seconds
#
# Revision: 0
# Processed by: cddbd v1.5.2PL0 Copyright (c) Steve Scherf et al.
# Submitted via: ExactAudioCopyFreeDBPlugin 1.0
#
DISCID=0c115811
DTITLE=Lisa McHugh - #LisaLive
DYEAR=2017
DGENRE=Country
TTITLE0=Hillbilly Girl
TTITLE1=Rose Of Allendale
TTITLE2=Why Have You Left The One
TTITLE3=He's A Good Ole Boy
TTITLE4=26 Cent
TTITLE5=Queens Of Country Medley
TTITLE6=What You Get Is What You See
TTITLE7=Blue Smoke
TTITLE8=Play Me The Waltz Of The Angels
TTITLE9=Stuck Like Glue
TTITLE10=I'm A Little Bit Lonely
TTITLE11=There Were Roses
TTITLE12=Mean
TTITLE13=Why'd Ya Come In Here
TTITLE14=Garth Brooks Medley
TTITLE15=Applejack
TTITLE16=Run
EXTD=
EXTT0=
EXTT1=
EXTT2=
EXTT3=
EXTT4=
EXTT5=
EXTT6=
EXTT7=
EXTT8=
EXTT9=
EXTT10=
EXTT11=
EXTT12=
EXTT13=
EXTT14=
EXTT15=
EXTT16=
PLAYORDER=
